<svg xmlns="http://www.w3.org/2000/svg" width="60" height="63" viewBox="0 0 60 63">
    <path fill="none" fill-rule="evenodd" stroke="#4938FF" stroke-linecap="round" stroke-linejoin="round" stroke-width="2" d="M10.986 17.19c-.94 4.668-.94 6.069 0 4.202 1.41-2.8 2.466-5.601 1.41-7.002-1.058-1.4-12.687 15.403-11.278 23.805.94 5.601 5.169 2.334 12.687-9.802-3.76 6.535-4.699 9.802-2.82 9.802 1.88 0 4.7-3.267 8.458-9.802-5.638 11.202-4.699 13.07 2.82 5.601-1.41 4.201 1.409 7.002 7.047-5.6 0 0-5.638 19.603 5.639-1.401 0 0-4.23 15.403 1.41 5.601 0 0 7.047 1.4 15.505-12.603C60.32 5.99 58.912 2 58.912 3.188c0 1.188 0-7.628-8.458 5.601C44.816 17.61 38.238 35.345 30.72 62"/>
</svg>
